<mxfile host="app.diagrams.net" agent="Mozilla/5.0 (Windows NT 10.0; Win64; x64) AppleWebKit/537.36 (KHTML, like Gecko) Chrome/128.0.0.0 Safari/537.36" version="24.7.10">
  <diagram id="C5RBs43oDa-KdzZeNtuy" name="Page-1">
    <mxGraphModel dx="1290" dy="618" grid="1" gridSize="10" guides="1" tooltips="1" connect="1" arrows="1" fold="1" page="1" pageScale="1" pageWidth="827" pageHeight="1169" math="0" shadow="0">
      <root>
        <mxCell id="WIyWlLk6GJQsqaUBKTNV-0" />
        <mxCell id="WIyWlLk6GJQsqaUBKTNV-1" parent="WIyWlLk6GJQsqaUBKTNV-0" />
        <mxCell id="13oa6xdOKVrAPLoREQmY-2" value="" style="edgeStyle=orthogonalEdgeStyle;rounded=0;orthogonalLoop=1;jettySize=auto;html=1;" edge="1" parent="WIyWlLk6GJQsqaUBKTNV-1" source="13oa6xdOKVrAPLoREQmY-0" target="13oa6xdOKVrAPLoREQmY-1">
          <mxGeometry relative="1" as="geometry" />
        </mxCell>
        <mxCell id="13oa6xdOKVrAPLoREQmY-0" value="Start" style="ellipse;whiteSpace=wrap;html=1;" vertex="1" parent="WIyWlLk6GJQsqaUBKTNV-1">
          <mxGeometry x="360" y="20" width="120" height="80" as="geometry" />
        </mxCell>
        <mxCell id="13oa6xdOKVrAPLoREQmY-17" value="" style="edgeStyle=orthogonalEdgeStyle;rounded=0;orthogonalLoop=1;jettySize=auto;html=1;" edge="1" parent="WIyWlLk6GJQsqaUBKTNV-1" source="13oa6xdOKVrAPLoREQmY-1" target="13oa6xdOKVrAPLoREQmY-13">
          <mxGeometry relative="1" as="geometry" />
        </mxCell>
        <mxCell id="13oa6xdOKVrAPLoREQmY-1" value="Display &quot;Welcome to the Guessing Game&quot;" style="rounded=0;whiteSpace=wrap;html=1;" vertex="1" parent="WIyWlLk6GJQsqaUBKTNV-1">
          <mxGeometry x="360" y="130" width="120" height="60" as="geometry" />
        </mxCell>
        <mxCell id="13oa6xdOKVrAPLoREQmY-22" value="" style="edgeStyle=orthogonalEdgeStyle;rounded=0;orthogonalLoop=1;jettySize=auto;html=1;" edge="1" parent="WIyWlLk6GJQsqaUBKTNV-1" source="13oa6xdOKVrAPLoREQmY-10" target="13oa6xdOKVrAPLoREQmY-12">
          <mxGeometry relative="1" as="geometry" />
        </mxCell>
        <mxCell id="13oa6xdOKVrAPLoREQmY-24" value="No" style="edgeLabel;html=1;align=center;verticalAlign=middle;resizable=0;points=[];" vertex="1" connectable="0" parent="13oa6xdOKVrAPLoREQmY-22">
          <mxGeometry x="-0.09" y="-3" relative="1" as="geometry">
            <mxPoint as="offset" />
          </mxGeometry>
        </mxCell>
        <mxCell id="13oa6xdOKVrAPLoREQmY-23" value="" style="edgeStyle=orthogonalEdgeStyle;rounded=0;orthogonalLoop=1;jettySize=auto;html=1;" edge="1" parent="WIyWlLk6GJQsqaUBKTNV-1" source="13oa6xdOKVrAPLoREQmY-10" target="13oa6xdOKVrAPLoREQmY-21">
          <mxGeometry relative="1" as="geometry" />
        </mxCell>
        <mxCell id="13oa6xdOKVrAPLoREQmY-25" value="Yes" style="edgeLabel;html=1;align=center;verticalAlign=middle;resizable=0;points=[];" vertex="1" connectable="0" parent="13oa6xdOKVrAPLoREQmY-23">
          <mxGeometry x="-0.21" y="3" relative="1" as="geometry">
            <mxPoint as="offset" />
          </mxGeometry>
        </mxCell>
        <mxCell id="13oa6xdOKVrAPLoREQmY-10" value="Is guess&amp;nbsp;equal to secretNumber?" style="rhombus;whiteSpace=wrap;html=1;" vertex="1" parent="WIyWlLk6GJQsqaUBKTNV-1">
          <mxGeometry x="360" y="490" width="120" height="80" as="geometry" />
        </mxCell>
        <mxCell id="13oa6xdOKVrAPLoREQmY-30" value="" style="edgeStyle=orthogonalEdgeStyle;rounded=0;orthogonalLoop=1;jettySize=auto;html=1;" edge="1" parent="WIyWlLk6GJQsqaUBKTNV-1" source="13oa6xdOKVrAPLoREQmY-12" target="13oa6xdOKVrAPLoREQmY-27">
          <mxGeometry relative="1" as="geometry" />
        </mxCell>
        <mxCell id="13oa6xdOKVrAPLoREQmY-12" value="Display &quot;Enter your guess&quot;" style="rounded=0;whiteSpace=wrap;html=1;" vertex="1" parent="WIyWlLk6GJQsqaUBKTNV-1">
          <mxGeometry x="160" y="500" width="120" height="60" as="geometry" />
        </mxCell>
        <mxCell id="13oa6xdOKVrAPLoREQmY-18" value="" style="edgeStyle=orthogonalEdgeStyle;rounded=0;orthogonalLoop=1;jettySize=auto;html=1;" edge="1" parent="WIyWlLk6GJQsqaUBKTNV-1" source="13oa6xdOKVrAPLoREQmY-13" target="13oa6xdOKVrAPLoREQmY-14">
          <mxGeometry relative="1" as="geometry" />
        </mxCell>
        <mxCell id="13oa6xdOKVrAPLoREQmY-13" value="Set secretNumber" style="shape=parallelogram;perimeter=parallelogramPerimeter;whiteSpace=wrap;html=1;fixedSize=1;" vertex="1" parent="WIyWlLk6GJQsqaUBKTNV-1">
          <mxGeometry x="360" y="220" width="120" height="60" as="geometry" />
        </mxCell>
        <mxCell id="13oa6xdOKVrAPLoREQmY-19" value="" style="edgeStyle=orthogonalEdgeStyle;rounded=0;orthogonalLoop=1;jettySize=auto;html=1;" edge="1" parent="WIyWlLk6GJQsqaUBKTNV-1" source="13oa6xdOKVrAPLoREQmY-14" target="13oa6xdOKVrAPLoREQmY-15">
          <mxGeometry relative="1" as="geometry" />
        </mxCell>
        <mxCell id="13oa6xdOKVrAPLoREQmY-14" value="Set guess" style="shape=parallelogram;perimeter=parallelogramPerimeter;whiteSpace=wrap;html=1;fixedSize=1;" vertex="1" parent="WIyWlLk6GJQsqaUBKTNV-1">
          <mxGeometry x="360" y="310" width="120" height="60" as="geometry" />
        </mxCell>
        <mxCell id="13oa6xdOKVrAPLoREQmY-20" value="" style="edgeStyle=orthogonalEdgeStyle;rounded=0;orthogonalLoop=1;jettySize=auto;html=1;" edge="1" parent="WIyWlLk6GJQsqaUBKTNV-1" source="13oa6xdOKVrAPLoREQmY-15" target="13oa6xdOKVrAPLoREQmY-10">
          <mxGeometry relative="1" as="geometry" />
        </mxCell>
        <mxCell id="13oa6xdOKVrAPLoREQmY-15" value="Set attempts" style="shape=parallelogram;perimeter=parallelogramPerimeter;whiteSpace=wrap;html=1;fixedSize=1;" vertex="1" parent="WIyWlLk6GJQsqaUBKTNV-1">
          <mxGeometry x="360" y="400" width="120" height="60" as="geometry" />
        </mxCell>
        <mxCell id="13oa6xdOKVrAPLoREQmY-43" value="" style="edgeStyle=orthogonalEdgeStyle;rounded=0;orthogonalLoop=1;jettySize=auto;html=1;" edge="1" parent="WIyWlLk6GJQsqaUBKTNV-1" source="13oa6xdOKVrAPLoREQmY-21" target="13oa6xdOKVrAPLoREQmY-26">
          <mxGeometry relative="1" as="geometry" />
        </mxCell>
        <mxCell id="13oa6xdOKVrAPLoREQmY-21" value="Display &quot;Congratulations!&quot;" style="rounded=0;whiteSpace=wrap;html=1;" vertex="1" parent="WIyWlLk6GJQsqaUBKTNV-1">
          <mxGeometry x="560" y="500" width="120" height="60" as="geometry" />
        </mxCell>
        <mxCell id="13oa6xdOKVrAPLoREQmY-45" value="" style="edgeStyle=orthogonalEdgeStyle;rounded=0;orthogonalLoop=1;jettySize=auto;html=1;" edge="1" parent="WIyWlLk6GJQsqaUBKTNV-1" source="13oa6xdOKVrAPLoREQmY-26" target="13oa6xdOKVrAPLoREQmY-44">
          <mxGeometry relative="1" as="geometry" />
        </mxCell>
        <mxCell id="13oa6xdOKVrAPLoREQmY-26" value="Display attempts" style="rounded=0;whiteSpace=wrap;html=1;" vertex="1" parent="WIyWlLk6GJQsqaUBKTNV-1">
          <mxGeometry x="560" y="600" width="120" height="60" as="geometry" />
        </mxCell>
        <mxCell id="13oa6xdOKVrAPLoREQmY-31" value="" style="edgeStyle=orthogonalEdgeStyle;rounded=0;orthogonalLoop=1;jettySize=auto;html=1;" edge="1" parent="WIyWlLk6GJQsqaUBKTNV-1" source="13oa6xdOKVrAPLoREQmY-27" target="13oa6xdOKVrAPLoREQmY-28">
          <mxGeometry relative="1" as="geometry" />
        </mxCell>
        <mxCell id="13oa6xdOKVrAPLoREQmY-27" value="inputs guess" style="shape=parallelogram;perimeter=parallelogramPerimeter;whiteSpace=wrap;html=1;fixedSize=1;" vertex="1" parent="WIyWlLk6GJQsqaUBKTNV-1">
          <mxGeometry x="160" y="590" width="120" height="60" as="geometry" />
        </mxCell>
        <mxCell id="13oa6xdOKVrAPLoREQmY-32" value="" style="edgeStyle=orthogonalEdgeStyle;rounded=0;orthogonalLoop=1;jettySize=auto;html=1;" edge="1" parent="WIyWlLk6GJQsqaUBKTNV-1" source="13oa6xdOKVrAPLoREQmY-28" target="13oa6xdOKVrAPLoREQmY-29">
          <mxGeometry relative="1" as="geometry" />
        </mxCell>
        <mxCell id="13oa6xdOKVrAPLoREQmY-28" value="Increment attempts" style="rounded=0;whiteSpace=wrap;html=1;" vertex="1" parent="WIyWlLk6GJQsqaUBKTNV-1">
          <mxGeometry x="160" y="680" width="120" height="60" as="geometry" />
        </mxCell>
        <mxCell id="13oa6xdOKVrAPLoREQmY-29" value="Is &lt;code&gt;guess&lt;/code&gt; &amp;lt; &lt;code&gt;secretNumber&lt;/code&gt;?" style="rhombus;whiteSpace=wrap;html=1;" vertex="1" parent="WIyWlLk6GJQsqaUBKTNV-1">
          <mxGeometry x="160" y="770" width="120" height="80" as="geometry" />
        </mxCell>
        <mxCell id="13oa6xdOKVrAPLoREQmY-33" value="Display &quot;Too low!&quot;" style="rounded=0;whiteSpace=wrap;html=1;" vertex="1" parent="WIyWlLk6GJQsqaUBKTNV-1">
          <mxGeometry x="60" y="880" width="120" height="60" as="geometry" />
        </mxCell>
        <mxCell id="13oa6xdOKVrAPLoREQmY-34" value="Display &quot;Too high!&quot;" style="rounded=0;whiteSpace=wrap;html=1;" vertex="1" parent="WIyWlLk6GJQsqaUBKTNV-1">
          <mxGeometry x="260" y="880" width="120" height="60" as="geometry" />
        </mxCell>
        <mxCell id="13oa6xdOKVrAPLoREQmY-35" value="" style="endArrow=classic;html=1;rounded=0;exitX=1;exitY=0.5;exitDx=0;exitDy=0;entryX=0.5;entryY=0;entryDx=0;entryDy=0;" edge="1" parent="WIyWlLk6GJQsqaUBKTNV-1" source="13oa6xdOKVrAPLoREQmY-29" target="13oa6xdOKVrAPLoREQmY-34">
          <mxGeometry width="50" height="50" relative="1" as="geometry">
            <mxPoint x="400" y="860" as="sourcePoint" />
            <mxPoint x="450" y="810" as="targetPoint" />
            <Array as="points">
              <mxPoint x="320" y="810" />
            </Array>
          </mxGeometry>
        </mxCell>
        <mxCell id="13oa6xdOKVrAPLoREQmY-38" value="No" style="edgeLabel;html=1;align=center;verticalAlign=middle;resizable=0;points=[];" vertex="1" connectable="0" parent="13oa6xdOKVrAPLoREQmY-35">
          <mxGeometry x="-0.48" y="-1" relative="1" as="geometry">
            <mxPoint y="-1" as="offset" />
          </mxGeometry>
        </mxCell>
        <mxCell id="13oa6xdOKVrAPLoREQmY-36" value="" style="endArrow=classic;html=1;rounded=0;exitX=0;exitY=0.5;exitDx=0;exitDy=0;entryX=0.5;entryY=0;entryDx=0;entryDy=0;" edge="1" parent="WIyWlLk6GJQsqaUBKTNV-1" source="13oa6xdOKVrAPLoREQmY-29" target="13oa6xdOKVrAPLoREQmY-33">
          <mxGeometry width="50" height="50" relative="1" as="geometry">
            <mxPoint x="400" y="860" as="sourcePoint" />
            <mxPoint x="450" y="810" as="targetPoint" />
            <Array as="points">
              <mxPoint x="120" y="810" />
            </Array>
          </mxGeometry>
        </mxCell>
        <mxCell id="13oa6xdOKVrAPLoREQmY-37" value="Yes" style="edgeLabel;html=1;align=center;verticalAlign=middle;resizable=0;points=[];" vertex="1" connectable="0" parent="13oa6xdOKVrAPLoREQmY-36">
          <mxGeometry x="-0.32" y="-2" relative="1" as="geometry">
            <mxPoint x="4" y="2" as="offset" />
          </mxGeometry>
        </mxCell>
        <mxCell id="13oa6xdOKVrAPLoREQmY-39" value="" style="endArrow=none;html=1;rounded=0;exitX=0.5;exitY=1;exitDx=0;exitDy=0;" edge="1" parent="WIyWlLk6GJQsqaUBKTNV-1" source="13oa6xdOKVrAPLoREQmY-33">
          <mxGeometry width="50" height="50" relative="1" as="geometry">
            <mxPoint x="400" y="800" as="sourcePoint" />
            <mxPoint x="120" y="980" as="targetPoint" />
          </mxGeometry>
        </mxCell>
        <mxCell id="13oa6xdOKVrAPLoREQmY-40" value="" style="endArrow=none;html=1;rounded=0;entryX=0.5;entryY=1;entryDx=0;entryDy=0;" edge="1" parent="WIyWlLk6GJQsqaUBKTNV-1" target="13oa6xdOKVrAPLoREQmY-34">
          <mxGeometry width="50" height="50" relative="1" as="geometry">
            <mxPoint x="320" y="980" as="sourcePoint" />
            <mxPoint x="450" y="750" as="targetPoint" />
          </mxGeometry>
        </mxCell>
        <mxCell id="13oa6xdOKVrAPLoREQmY-41" value="" style="endArrow=none;html=1;rounded=0;" edge="1" parent="WIyWlLk6GJQsqaUBKTNV-1">
          <mxGeometry width="50" height="50" relative="1" as="geometry">
            <mxPoint x="120" y="980" as="sourcePoint" />
            <mxPoint x="320" y="980" as="targetPoint" />
          </mxGeometry>
        </mxCell>
        <mxCell id="13oa6xdOKVrAPLoREQmY-42" value="" style="endArrow=classic;html=1;rounded=0;entryX=0.5;entryY=1;entryDx=0;entryDy=0;" edge="1" parent="WIyWlLk6GJQsqaUBKTNV-1" target="13oa6xdOKVrAPLoREQmY-10">
          <mxGeometry width="50" height="50" relative="1" as="geometry">
            <mxPoint x="220" y="980" as="sourcePoint" />
            <mxPoint x="450" y="750" as="targetPoint" />
            <Array as="points">
              <mxPoint x="220" y="1020" />
              <mxPoint x="420" y="1020" />
            </Array>
          </mxGeometry>
        </mxCell>
        <mxCell id="13oa6xdOKVrAPLoREQmY-44" value="End" style="ellipse;whiteSpace=wrap;html=1;" vertex="1" parent="WIyWlLk6GJQsqaUBKTNV-1">
          <mxGeometry x="560" y="700" width="120" height="80" as="geometry" />
        </mxCell>
      </root>
    </mxGraphModel>
  </diagram>
</mxfile>
